<?xml version="1.0" encoding="utf-8"?>
<!-- Generator: Adobe Illustrator 13.0.2, SVG Export Plug-In . SVG Version: 6.00 Build 14948)  -->
<!DOCTYPE svg PUBLIC "-//W3C//DTD SVG 1.1//EN" "http://www.w3.org/Graphics/SVG/1.1/DTD/svg11.dtd">
<svg version="1.1" id="Ebene_1" xmlns="http://www.w3.org/2000/svg" xmlns:xlink="http://www.w3.org/1999/xlink" x="0px" y="0px"
	 width="566.929px" height="175.158px" viewBox="0 0 566.929 175.158" enable-background="new 0 0 566.929 175.158"
	 xml:space="preserve">
<polygon fill="#FFDD00" points="566.926,0 566.926,125.113 0,125.113 0,0 566.926,0 "/>
<path fill="#D50029" d="M99.699,22.467L81.586,47.076c0,0,93.9,0,98.717,0c4.99,0,4.924,1.897,2.486,5.201
	c-2.477,3.354-6.622,9.187-9.145,12.593c-1.281,1.729-3.595,4.879,4.075,4.879c8.111,0,40.369,0,40.369,0s6.507-8.855,11.961-16.257
	c7.421-10.07,0.643-31.024-25.884-31.024C180.423,22.467,99.699,22.467,99.699,22.467L99.699,22.467z"/>
<path fill="#D50029" d="M74.258,102.638l36.381-49.433c0,0,40.331,0.001,45.147,0.001c4.99,0,4.924,1.896,2.486,5.2
	c-2.477,3.354-6.691,9.125-9.213,12.532c-1.281,1.729-3.595,4.884,4.075,4.884c8.111,0,60.482,0,60.481,0
	c-5.029,6.891-21.345,26.815-50.642,26.815C139.228,102.638,74.258,102.638,74.258,102.638L74.258,102.638z"/>
<path fill="#D50029" d="M282.612,75.816l-19.729,26.822h-52.042c0,0,19.717-26.815,19.735-26.815L282.612,75.816L282.612,75.816z"/>
<polygon fill="#D50029" points="362.339,69.749 235.048,69.749 269.856,22.467 321.883,22.467 301.932,49.579 325.155,49.579 
	345.114,22.467 397.136,22.467 362.339,69.749 "/>
<path fill="#D50029" d="M357.871,75.822l-19.739,26.815H286.11c0,0,19.718-26.815,19.734-26.815H357.871L357.871,75.822z"/>
<polygon fill="#D50029" points="0,86.396 76.667,86.396 72.479,92.094 0,92.094 0,86.396 "/>
<polygon fill="#D50029" points="0,75.822 84.457,75.822 80.261,81.512 0,81.512 0,75.822 "/>
<polygon fill="#D50029" points="0,96.977 68.883,96.977 64.714,102.638 0,102.638 0,96.977 "/>
<polygon fill="#D50029" points="566.929,92.094 490.557,92.094 494.747,86.397 566.929,86.397 566.929,92.094 "/>
<polygon fill="#D50029" points="566.929,102.638 482.792,102.646 486.959,96.977 566.929,96.977 566.929,102.638 "/>
<polygon fill="#D50029" points="502.526,75.822 566.929,75.822 566.929,81.514 498.34,81.519 502.526,75.822 "/>
<path fill="#D50029" d="M469.188,22.467l-34.803,47.281h-55.128c0,0,34.812-47.281,34.828-47.281H469.188L469.188,22.467z"/>
<path fill="#D50029" d="M374.794,75.822c0.001,0-3.802,5.198-5.65,7.695c-6.535,8.831-0.757,19.12,20.568,19.12
	c24.629,0,83.553,0,83.553,0L493,75.822H374.794L374.794,75.822z"/>
<polygon fill="#FFDD00" points="0,145.372 566.908,145.372 566.908,148.207 0,148.207 0,145.372 "/>
<polygon fill="#FFDD00" points="0,158.601 566.908,158.601 566.908,161.436 0,161.436 0,158.601 "/>
<polygon fill="#FFDD00" points="0,171.818 566.908,171.818 566.908,174.653 0,174.653 0,171.818 "/>
<path fill="#D50029" d="M85.15,146.336c-1.861-0.84-3.322-1.469-7.679-1.469c-9.098,0-20.166,5.999-26.787,15.02
	c-6.837,9.314-4.932,15.271,4.508,15.271c4.656,0,8.029-0.755,10.053-1.301l11.18-15.229h-10.55l-2.526,3.44h6.279l-6.529,8.895
	c-1.222,0.21-2.207,0.503-5.154,0.503c-6.193,0-7.876-4.572-2.826-11.453c4.805-6.545,12.979-11.453,19.855-11.453
	c3.844,0,5.616,0.671,6.723,2.014L85.15,146.336L85.15,146.336z"/>
<polygon fill="#D50029" points="72.771,174.655 89.514,174.655 92.225,170.963 79.752,170.963 98.539,145.37 94.268,145.37 
	72.771,174.655 "/>
<path fill-rule="evenodd" clip-rule="evenodd" fill="#D50029" d="M105.499,160.013c4.374-5.957,11.686-11.495,18.232-11.453
	c6.609-0.042,5.79,5.496,1.417,11.453c-4.281,5.832-11.355,11.453-18.232,11.453S101.218,165.845,105.499,160.013L105.499,160.013z
	 M100.972,160.013c-6.53,8.895-5.865,15.146,3.233,15.146s18.941-6.251,25.47-15.146c6.375-8.685,5.822-15.146-3.233-15.146
	S107.347,151.328,100.972,160.013L100.972,160.013z"/>
<path fill-rule="evenodd" clip-rule="evenodd" fill="#D50029" d="M125.323,174.655h7.945c6.065,0,12.471-1.511,17.091-7.804
	c3.018-4.112,2.066-6.713-1.746-7.049l0.062-0.084c4.437-0.923,8.307-2.937,11.264-6.964c3.973-5.412,1.149-7.385-5.044-7.385
	h-8.073L125.323,174.655L125.323,174.655z M139.389,161.313h2.776c3.674,0,7.27,0.629,3.943,5.16
	c-2.895,3.943-6.94,4.741-10.785,4.741h-3.204L139.389,161.313L139.389,161.313z M148.566,148.811h4.485
	c2.478,0,4.863,0.881,2.307,4.363c-3.172,4.321-6.952,4.699-11.095,4.699h-2.349L148.566,148.811L148.566,148.811z"/>
<path fill-rule="evenodd" clip-rule="evenodd" fill="#D50029" d="M148.968,174.655h4.485l8.454-7.385h14.608l-2.388,7.385h4.656
	l8.897-29.285h-4.485L148.968,174.655L148.968,174.655z M177.673,163.831h-11.875l16.594-14.517L177.673,163.831L177.673,163.831z"
	/>
<polygon fill="#D50029" points="183.646,174.655 200.391,174.655 203.101,170.963 190.628,170.963 209.416,145.37 205.145,145.37 
	183.646,174.655 "/>
<polygon fill="#D50029" points="217.85,174.655 222.122,174.655 231.916,161.313 242.979,161.313 245.689,157.621 234.626,157.621 
	240.909,149.063 252.484,149.063 255.195,145.37 239.348,145.37 217.85,174.655 "/>
<path fill-rule="evenodd" clip-rule="evenodd" fill="#D50029" d="M253.801,160.013c4.374-5.957,11.686-11.495,18.233-11.453
	c6.609-0.042,5.79,5.496,1.416,11.453c-4.281,5.832-11.355,11.453-18.232,11.453S249.52,165.845,253.801,160.013L253.801,160.013z
	 M249.273,160.013c-6.53,8.895-5.865,15.146,3.233,15.146s18.941-6.251,25.47-15.146c6.375-8.685,5.822-15.146-3.233-15.146
	C265.688,144.867,255.648,151.328,249.273,160.013L249.273,160.013z"/>
<path fill-rule="evenodd" clip-rule="evenodd" fill="#D50029" d="M273.625,174.655h4.271l9.547-13.007h2.563
	c2.264,0,3.673,0,2.903,2.854l-2.883,10.153h4.869l2.924-11.664c0.385-1.804,0.206-2.434-0.749-2.937l0.062-0.084
	c3.892-0.587,8.431-3.104,11.048-6.671c5.144-7.006,0.141-7.93-5.754-7.93h-7.305L273.625,174.655L273.625,174.655z
	 M296.684,149.063h4.101c3.93,0,4.748,1.679,2.808,4.321c-2.063,2.811-5.749,4.573-9.807,4.573h-3.631L296.684,149.063
	L296.684,149.063z"/>
<polygon fill="#D50029" points="305.855,174.655 311.579,174.655 336.901,149.063 336.987,149.063 324.692,174.655 330.202,174.655 
	360.884,145.37 356.355,145.37 330.805,170.459 330.719,170.459 342.688,145.37 336.622,145.37 311.84,170.459 311.754,170.459 
	323.039,145.37 318.34,145.37 305.855,174.655 "/>
<path fill-rule="evenodd" clip-rule="evenodd" fill="#D50029" d="M339.814,174.655h4.485l8.453-7.385h14.608l-2.389,7.385h4.656
	l8.897-29.285h-4.485L339.814,174.655L339.814,174.655z M368.52,163.831h-11.874l16.594-14.517L368.52,163.831L368.52,163.831z"/>
<path fill-rule="evenodd" clip-rule="evenodd" fill="#D50029" d="M374.28,174.655h4.271l9.548-13.007h2.563
	c2.264,0,3.673,0,2.903,2.854l-2.884,10.153h4.87l2.924-11.664c0.385-1.804,0.206-2.434-0.749-2.937l0.062-0.084
	c3.892-0.587,8.43-3.104,11.048-6.671c5.144-7.006,0.141-7.93-5.754-7.93h-7.305L374.28,174.655L374.28,174.655z M397.339,149.063
	h4.101c3.93,0,4.748,1.679,2.808,4.321c-2.063,2.811-5.749,4.573-9.808,4.573h-3.63L397.339,149.063L397.339,149.063z"/>
<path fill-rule="evenodd" clip-rule="evenodd" fill="#D50029" d="M400.958,174.655h8.799c9.824,0,19.616-5.077,26.823-14.895
	c6.621-9.02,3.516-14.391-5.326-14.391h-8.799L400.958,174.655L400.958,174.655z M424.017,149.063h4.997
	c6.151,0,7.936,4.027,2.915,10.866c-5.544,7.552-12.158,11.034-19.504,11.034h-4.485L424.017,149.063L424.017,149.063z"/>
<polygon fill="#D50029" points="432.646,174.655 436.918,174.655 458.415,145.37 454.144,145.37 432.646,174.655 "/>
<polygon fill="#D50029" points="445.064,174.655 449.336,174.655 467.015,150.573 467.101,150.573 462.92,174.655 468.387,174.655 
	489.885,145.37 485.613,145.37 468.304,168.949 468.219,168.949 472.372,145.37 466.563,145.37 445.064,174.655 "/>
<path fill="#D50029" d="M520.31,146.336c-1.861-0.84-3.321-1.469-7.678-1.469c-9.099,0-20.166,5.999-26.788,15.02
	c-6.837,9.314-4.932,15.271,4.508,15.271c4.656,0,8.03-0.755,10.054-1.301l11.18-15.229h-10.551l-2.525,3.44h6.279l-6.529,8.895
	c-1.223,0.21-2.207,0.503-5.154,0.503c-6.193,0-7.876-4.572-2.825-11.453c4.805-6.545,12.979-11.453,19.855-11.453
	c3.845,0,5.615,0.671,6.723,2.014L520.31,146.336L520.31,146.336z"/>
</svg>
